<svg xmlns="http://www.w3.org/2000/svg" viewBox="0 0 1240 860" width="1240" height="860" font-family="Helvetica, Arial, sans-serif" xmlns:c2pa="http://c2pa.org/manifest"><metadata><c2pa:manifest>AAAWgmp1bWIAAAAeanVtZGMycGEAEQAQgAAAqgA4m3EDYzJwYQAAABZcanVtYgAAAEdqdW1kYzJtYQARABCAAACqADibcQN1cm46YzJwYTphOWY1NWVlNi1kYzM1LTQ5MzUtOTFjNi01ZTJjYjAwZGJmMWUAAAADl2p1bWIAAAApanVtZGMyYXMAEQAQgAAAqgA4m3EDYzJwYS5hc3NlcnRpb25zAAAAALxqdW1iAAAARGp1bWRjYm9yABEAEIAAAKoAOJtxE2MycGEuaW5ncmVkaWVudC52MwAAAAAYYzJzaFQ8zRKh+6CIu0+G4NGUaMsAAABwY2JvcqNpZGM6Zm9ybWF0bWltYWdlL3N2Zyt4bWxqaW5zdGFuY2VJRHgseG1wOmlpZDoxZWRlZmU4Zi0yMDA1LTQ2ZjUtODY4Ny02MTVmNWUwNWExNjVscmVsYXRpb25zaGlwaHBhcmVudE9mAAAB4mp1bWIAAABBanVtZGNib3IAEQAQgAAAqgA4m3ETYzJwYS5hY3Rpb25zLnYyAAAAABhjMnNowb0WKHgEHEoW3ylGEB8Y4wAAAZljYm9yomdhY3Rpb25zgqJmYWN0aW9ua2MycGEub3BlbmVkanBhcmFtZXRlcnOha2luZ3JlZGllbnRzgaJjdXJseC1zZWxmI2p1bWJmPWMycGEuYXNzZXJ0aW9ucy9jMnBhLmluZ3JlZGllbnQudjNkaGFzaFgg0OH6dkJc8rNXSTxrUyydG7xMLS6MbdOTacBmzLBtDTakZmFjdGlvbngdY29tLmFudGhyb3BpYy5jbGF1ZGUucHJvdmlkZWRqcGFyYW1ldGVyc6F4H2NvbS5hbnRocm9waWMub3JpZ2luLWNvbmZpZGVuY2VndW5rbm93bmtkZXNjcmlwdGlvbnhmQ2xhdWRlIHByb3ZpZGVkIHRoaXMgZmlsZSBhdCB0aGUgcmVxdWVzdCBvZiBhIHVzZXIgYW5kIG1heSBoYXZlIGNyZWF0ZWQgb3IgbW9kaWZpZWQgdGhlIGZpbGUgY29udGVudHMubXNvZnR3YXJlQWdlbnShZG5hbWVmQ2xhdWRlcmFsbEFjdGlvbnNJbmNsdWRlZPUAAADIanVtYgAAAEBqdW1kY2JvcgARABCAAACqADibcRNjMnBhLmhhc2guZGF0YQAAAAAYYzJzaGum9N/amZzrrNmOKeXjbfMAAACAY2JvcqVjYWxnZnNoYTI1NmNwYWRNAAAAAAAAAAAAAAAAAGRoYXNoWCD8pQRAnuCuMDkZdmJRrEjM46kQKDVQRKgrzpioog5kSmRuYW1lbmp1bWJmIG1hbmlmZXN0amV4Y2x1c2lvbnOBomVzdGFydBjDZmxlbmd0aBkeBAAAAj5qdW1iAAAAJ2p1bWRjMmNsABEAEIAAAKoAOJtxA2MycGEuY2xhaW0udjIAAAACD2Nib3KlY2FsZ2ZzaGEyNTZpc2lnbmF0dXJleE1zZWxmI2p1bWJmPS9jMnBhL3VybjpjMnBhOmE5ZjU1ZWU2LWRjMzUtNDkzNS05MWM2LTVlMmNiMDBkYmYxZS9jMnBhLnNpZ25hdHVyZWppbnN0YW5jZUlEeCx4bXA6aWlkOjRiZDZkN2M3LTEwNGItNDY0Ni05MDI1LTQxYzVjMWYyMTcyMnJjcmVhdGVkX2Fzc2VydGlvbnODomN1cmx4LXNlbGYjanVtYmY9YzJwYS5hc3NlcnRpb25zL2MycGEuaW5ncmVkaWVudC52M2RoYXNoWCDQ4fp2Qlzys1dJPGtTLJ0bvEwtLoxt05NpwGbMsG0NNqJjdXJseCpzZWxmI2p1bWJmPWMycGEuYXNzZXJ0aW9ucy9jMnBhLmFjdGlvbnMudjJkaGFzaFggRprmkZFwc04ipwH5+BDcgrifR2IlNId1xvhPOs5784CiY3VybHgpc2VsZiNqdW1iZj1jMnBhLmFzc2VydGlvbnMvYzJwYS5oYXNoLmRhdGFkaGFzaFgg4Rxzgjp5+V/QUrriLeaVGK2PB4y3Hdymi5fnR8PFVgR0Y2xhaW1fZ2VuZXJhdG9yX2luZm+jZG5hbWVvQW50aHJvcGljIEZpbGVzZ3ZlcnNpb25lMS4wLjBrc3BlY1ZlcnNpb25lMi40LjAAABA4anVtYgAAAChqdW1kYzJjcwARABCAAACqADibcQNjMnBhLnNpZ25hdHVyZQAAABAIY2JvctKEWQISogEmGCFZAgowggIGMIIBjaADAgECAhRA5aAK7sI50L64g/oGQgU9Z1UTADAKBggqhkjOPQQDAzBJMRcwFQYDVQQKEw5BbnRocm9waWMsIFBCQzEuMCwGA1UEAxMlQW50aHJvcGljIENvbnRlbnQgQ3JlZGVudGlhbHMgUm9vdCBDQTAeFw0yNjA4MDcxODQzNTZaFw0yODA4MDYxOTQzNTZaMEQxFzAVBgNVBAoTDkFudGhyb3BpYywgUEJDMSkwJwYDVQQDEyBBbnRocm9waWMgQ2xhdWRlIENvbnRlbnQgU2lnbmluZzBZMBMGByqGSM49AgEGCCqGSM49AwEHA0IABJh6CmvLUBgFFNU0vUKlOVtE6djd17L5SuwX0LemFisBM3dkd/3cyjxFA3Qo5S46fX0/ihY0VZ7mfb9KF703t5OjWDBWMA4GA1UdDwEB/wQEAwIHgDAVBgNVHSUEDjAMBgorBgEEAYPoXgIBMAwGA1UdEwEB/wQCMAAwHwYDVR0jBBgwFoAUzlHiBIFOZFsj+OPEz5o+nMHXXMIwCgYIKoZIzj0EAwMDZwAwZAIwMXMdFJ4BetLLVY7ORuE9noqbbAZOZn/aArXyTwFAZfKrPzxF2vPoJNf1+UCdg1XGAjBwX1zd9WGqYkqmL5SFqw1QySjr1zJfpJM9+1rdDwSPLMOPOjKuiXjoU/pUUeG9RwmhY3BhZFkNngAAAAAAAAAAAAAAAAAAAAAAAAAAAAAAAAAAAAAAAAAAAAAAAAAAAAAAAAAAAAAAAAAAAAAAAAAAAAAAAAAAAAAAAAAAAAAAAAAAAAAAAAAAAAAAAAAAAAAAAAAAAAAAAAAAAAAAAAAAAAAAAAAAAAAAAAAAAAAAAAAAAAAAAAAAAAAAAAAAAAAAAAAAAAAAAAAAAAAAAAAAAAAAAAAAAAAAAAAAAAAAAAAAAAAAAAAAAAAAAAAAAAAAAAAAAAAAAAAAAAAAAAAAAAAAAAAAAAAAAAAAAAAAAAAAAAAAAAAAAAAAAAAAAAAAAAAAAAAAAAAAAAAAAAAAAAAAAAAAAAAAAAAAAAAAAAAAAAAAAAAAAAAAAAAAAAAAAAAAAAAAAAAAAAAAAAAAAAAAAAAAAAAAAAAAAAAAAAAAAAAAAAAAAAAAAAAAAAAAAAAAAAAAAAAAAAAAAAAAAAAAAAAAAAAAAAAAAAAAAAAAAAAAAAAAAAAAAAAAAAAAAAAAAAAAAAAAAAAAAAAAAAAAAAAAAAAAAAAAAAAAAAAAAAAAAAAAAAAAAAAAAAAAAAAAAAAAAAAAAAAAAAAAAAAAAAAAAAAAAAAAAAAAAAAAAAAAAAAAAAAAAAAAAAAAAAAAAAAAAAAAAAAAAAAAAAAAAAAAAAAAAAAAAAAAAAAAAAAAAAAAAAAAAAAAAAAAAAAAAAAAAAAAAAAAAAAAAAAAAAAAAAAAAAAAAAAAAAAAAAAAAAAAAAAAAAAAAAAAAAAAAAAAAAAAAAAAAAAAAAAAAAAAAAAAAAAAAAAAAAAAAAAAAAAAAAAAAAAAAAAAAAAAAAAAAAAAAAAAAAAAAAAAAAAAAAAAAAAAAAAAAAAAAAAAAAAAAAAAAAAAAAAAAAAAAAAAAAAAAAAAAAAAAAAAAAAAAAAAAAAAAAAAAAAAAAAAAAAAAAAAAAAAAAAAAAAAAAAAAAAAAAAAAAAAAAAAAAAAAAAAAAAAAAAAAAAAAAAAAAAAAAAAAAAAAAAAAAAAAAAAAAAAAAAAAAAAAAAAAAAAAAAAAAAAAAAAAAAAAAAAAAAAAAAAAAAAAAAAAAAAAAAAAAAAAAAAAAAAAAAAAAAAAAAAAAAAAAAAAAAAAAAAAAAAAAAAAAAAAAAAAAAAAAAAAAAAAAAAAAAAAAAAAAAAAAAAAAAAAAAAAAAAAAAAAAAAAAAAAAAAAAAAAAAAAAAAAAAAAAAAAAAAAAAAAAAAAAAAAAAAAAAAAAAAAAAAAAAAAAAAAAAAAAAAAAAAAAAAAAAAAAAAAAAAAAAAAAAAAAAAAAAAAAAAAAAAAAAAAAAAAAAAAAAAAAAAAAAAAAAAAAAAAAAAAAAAAAAAAAAAAAAAAAAAAAAAAAAAAAAAAAAAAAAAAAAAAAAAAAAAAAAAAAAAAAAAAAAAAAAAAAAAAAAAAAAAAAAAAAAAAAAAAAAAAAAAAAAAAAAAAAAAAAAAAAAAAAAAAAAAAAAAAAAAAAAAAAAAAAAAAAAAAAAAAAAAAAAAAAAAAAAAAAAAAAAAAAAAAAAAAAAAAAAAAAAAAAAAAAAAAAAAAAAAAAAAAAAAAAAAAAAAAAAAAAAAAAAAAAAAAAAAAAAAAAAAAAAAAAAAAAAAAAAAAAAAAAAAAAAAAAAAAAAAAAAAAAAAAAAAAAAAAAAAAAAAAAAAAAAAAAAAAAAAAAAAAAAAAAAAAAAAAAAAAAAAAAAAAAAAAAAAAAAAAAAAAAAAAAAAAAAAAAAAAAAAAAAAAAAAAAAAAAAAAAAAAAAAAAAAAAAAAAAAAAAAAAAAAAAAAAAAAAAAAAAAAAAAAAAAAAAAAAAAAAAAAAAAAAAAAAAAAAAAAAAAAAAAAAAAAAAAAAAAAAAAAAAAAAAAAAAAAAAAAAAAAAAAAAAAAAAAAAAAAAAAAAAAAAAAAAAAAAAAAAAAAAAAAAAAAAAAAAAAAAAAAAAAAAAAAAAAAAAAAAAAAAAAAAAAAAAAAAAAAAAAAAAAAAAAAAAAAAAAAAAAAAAAAAAAAAAAAAAAAAAAAAAAAAAAAAAAAAAAAAAAAAAAAAAAAAAAAAAAAAAAAAAAAAAAAAAAAAAAAAAAAAAAAAAAAAAAAAAAAAAAAAAAAAAAAAAAAAAAAAAAAAAAAAAAAAAAAAAAAAAAAAAAAAAAAAAAAAAAAAAAAAAAAAAAAAAAAAAAAAAAAAAAAAAAAAAAAAAAAAAAAAAAAAAAAAAAAAAAAAAAAAAAAAAAAAAAAAAAAAAAAAAAAAAAAAAAAAAAAAAAAAAAAAAAAAAAAAAAAAAAAAAAAAAAAAAAAAAAAAAAAAAAAAAAAAAAAAAAAAAAAAAAAAAAAAAAAAAAAAAAAAAAAAAAAAAAAAAAAAAAAAAAAAAAAAAAAAAAAAAAAAAAAAAAAAAAAAAAAAAAAAAAAAAAAAAAAAAAAAAAAAAAAAAAAAAAAAAAAAAAAAAAAAAAAAAAAAAAAAAAAAAAAAAAAAAAAAAAAAAAAAAAAAAAAAAAAAAAAAAAAAAAAAAAAAAAAAAAAAAAAAAAAAAAAAAAAAAAAAAAAAAAAAAAAAAAAAAAAAAAAAAAAAAAAAAAAAAAAAAAAAAAAAAAAAAAAAAAAAAAAAAAAAAAAAAAAAAAAAAAAAAAAAAAAAAAAAAAAAAAAAAAAAAAAAAAAAAAAAAAAAAAAAAAAAAAAAAAAAAAAAAAAAAAAAAAAAAAAAAAAAAAAAAAAAAAAAAAAAAAAAAAAAAAAAAAAAAAAAAAAAAAAAAAAAAAAAAAAAAAAAAAAAAAAAAAAAAAAAAAAAAAAAAAAAAAAAAAAAAAAAAAAAAAAAAAAAAAAAAAAAAAAAAAAAAAAAAAAAAAAAAAAAAAAAAAAAAAAAAAAAAAAAAAAAAAAAAAAAAAAAAAAAAAAAAAAAAAAAAAAAAAAAAAAAAAAAAAAAAAAAAAAAAAAAAAAAAAAAAAAAAAAAAAAAAAAAAAAAAAAAAAAAAAAAAAAAAAAAAAAAAAAAAAAAAAAAAAAAAAAAAAAAAAAAAAAAAAAAAAAAAAAAAAAAAAAAAAAAAAAAAAAAAAAAAAAAAAAAAAAAAAAAAAAAAAAAAAAAAAAAAAAAAAAAAAAAAAAAAAAAAAAAAAAAAAAAAAAAAAAAAAAAAAAAAAAAAAAAAAAAAAAAAAAAAAAAAAAAAAAAAAAAAAAAAAAAAAAAAAAAAAAAAAAAAAAAAAAAAAAAAAAAAAAAAAAAAAAAAAAAAAAAAAAAAAAAAAAAAAAAAAAAAAAAAAAAAAAAAAAAAAAAAAAAAAAAAAAAAAAAAAAAAAAAAAAAAAAAAAAAAAAAAAAAAAAAAAAAAAAAAAAAAAAAAAAAAAAAAAAAAAAAAAAAAAAAAAAAAAAAAAAAAAAAAAAAAAAAAAAAAAAAAAAAAAAAAAAAAAAAAAAAAAAAAAAAAAAAAAAAAAAAAAAAAAAAAAAAAAAAAAAAAAAAAAAAAAAAAAAAAAAAAAAAAAAAAAAAAAAAAAAAAAAAAAAAAAAAAAAAAAAAAAAAAAAAAAAAAAAAAAAAAAAAAAAAAAAAAAAAAAAAAAAAAAAAAAAAAAAAAAAAAAAAAAAAAAAAAAAAAAAAAAAAAAAAAAAAAAAAAAAAAAAAAAAAAAAAAAAAAAAAAAAAAAAAAAAAAAAAAAAAAAAAAAAAAAAAAAAAAAAAAAAAAAAAAAAAAAAAAAAAAAAAAAAAAAAAAAAAAAAAAAAAAAAAAAAAAAAAAAAAAAAAAAAAAAAAAAAAAAAAAAAAAAAAAAAAAAAAAAAAAAAAAAAAAAAAAAAAAAAAAAAAAAAAAAAAAAAAAAAAAAAAAAAAAAAAAAAAAAAAAAAAAAAAAAAAAAAAAAAAAAAAAAAAAAAAAAAAAAAAAAAAAAAAAAAAAAAAAAAAAAAAAAAAAAAAAAAAAAAAAAAAAAAAAAAAAAAAAAAAAAAAAAAAAAAAAAAAAAAAAAAAAAAAAAAAAAAAAAAAAAAAAAAAAAAAAAAAAAAAAAAAAAAAAAAAAAAAAAAAAAAAAAAAAAAAAAAAAAAAAAAAAAAAAAAAAAAAAAAAAAAAAAAAAAAAAAAAAAAAAAAAAAAAAAAAAAAAAAAAAAAAAAAAAAAAAAAAAAAAAAAAAAAAAAAAAAAAAAAAAAAAAAAAAAAAAAAAAAAAAAAAAAAAAAAAAAAAAAAAAAAAAAAAAAAAAAAAAAAAAAAAAAAAAAAAAAAAAAAAAAAAAAAAAAAAAAAAAAAAAAAAAAAAAAAAAAAAAAAAAAAAAAAAAAAAAAAAAAAAAAAAAAAAAAAAAAAAAAAAAAAAAAAAAAAAAAAAAAAAAAAAAAAAAAAAAAAAAAAAAAAAAAAAAAAAAAAAAAAAAAAAAAAAAAAAAAAAAAAAAAAAAAAAAAAAAAAAAAAAAAAAAAAAAAAAAAAAAAAAAAAAAAAAAAAAAAAAAAAAAAAAAAAAAAAAAAAAAAAAAAAAAAAAAAAAAAAAAAAAAAAAAAAAAAAAAAAAAAAAAAAAAAAAAAAAAAAAAAAAAAAAAAAAAAAAAAAAAAAAAAAAAAAAAAAAAAAAAAAAAAAAAAAAAAAAAAAAAAAAAAAAAAAAAAAAAAAAAAAAAAAAAAAAAAAAAAAAAAAAAAAAAAAAAAAAAAAAAAAAAAAAAAAPZYQDkOASpbhZABUpK06h++79+ArMCByYYJD1IFbdGMQm/ngo63XM25sav50XoJM3W7oH1q+Rc7eZPZOefJ+Cljj8c=</c2pa:manifest></metadata>
<rect width="1240" height="860" fill="white"/>
<rect x="330" y="300" width="340" height="260" rx="10" fill="#0C8A96" stroke="#08616A" stroke-width="2"/>
<circle cx="344" cy="314" r="5" fill="white" stroke="#08616A"/>
<circle cx="656" cy="546" r="5" fill="white" stroke="#08616A"/>
<circle cx="344" cy="546" r="5" fill="white" stroke="#08616A"/>
<circle cx="656" cy="360" r="5" fill="white" stroke="#08616A"/>
<rect x="312" y="340" width="44" height="44" fill="#9CA3AF" stroke="#6B7280"/>
<rect x="316" y="440" width="40" height="34" fill="#111" stroke="#000"/>
<rect x="480" y="450" width="110" height="28" fill="#111"/>
<text x="500.0" y="420" font-size="18" fill="white" text-anchor="middle" font-weight="bold">Arduino Uno</text>
<text x="500.0" y="440" font-size="11" fill="#CDEDF0" text-anchor="middle" font-weight="normal">(any 5 V board)</text>
<rect x="354" y="300" width="294" height="18" fill="#111"/>
<rect x="637" y="305" width="6" height="8" fill="#444"/>
<text x="640" y="324" font-size="7.5" fill="white" text-anchor="start" font-weight="normal" transform="rotate(90 640 324)">0</text>
<rect x="619" y="305" width="6" height="8" fill="#444"/>
<text x="622" y="324" font-size="7.5" fill="white" text-anchor="start" font-weight="normal" transform="rotate(90 622 324)">1</text>
<rect x="601" y="305" width="6" height="8" fill="#444"/>
<text x="604" y="324" font-size="7.5" fill="white" text-anchor="start" font-weight="normal" transform="rotate(90 604 324)">2</text>
<rect x="583" y="305" width="6" height="8" fill="#444"/>
<text x="586" y="324" font-size="7.5" fill="white" text-anchor="start" font-weight="normal" transform="rotate(90 586 324)">3</text>
<rect x="565" y="305" width="6" height="8" fill="#444"/>
<text x="568" y="324" font-size="7.5" fill="white" text-anchor="start" font-weight="normal" transform="rotate(90 568 324)">4</text>
<rect x="547" y="305" width="6" height="8" fill="#444"/>
<text x="550" y="324" font-size="7.5" fill="white" text-anchor="start" font-weight="normal" transform="rotate(90 550 324)">5</text>
<rect x="529" y="305" width="6" height="8" fill="#444"/>
<text x="532" y="324" font-size="7.5" fill="white" text-anchor="start" font-weight="normal" transform="rotate(90 532 324)">6</text>
<rect x="511" y="305" width="6" height="8" fill="#444"/>
<text x="514" y="324" font-size="7.5" fill="white" text-anchor="start" font-weight="normal" transform="rotate(90 514 324)">7</text>
<rect x="485" y="305" width="6" height="8" fill="#444"/>
<text x="488" y="324" font-size="7.5" fill="white" text-anchor="start" font-weight="normal" transform="rotate(90 488 324)">8</text>
<rect x="467" y="305" width="6" height="8" fill="#444"/>
<text x="470" y="324" font-size="7.5" fill="white" text-anchor="start" font-weight="normal" transform="rotate(90 470 324)">9</text>
<rect x="449" y="305" width="6" height="8" fill="#444"/>
<text x="452" y="324" font-size="7.5" fill="white" text-anchor="start" font-weight="normal" transform="rotate(90 452 324)">10</text>
<rect x="431" y="305" width="6" height="8" fill="#444"/>
<text x="434" y="324" font-size="7.5" fill="white" text-anchor="start" font-weight="normal" transform="rotate(90 434 324)">11</text>
<rect x="413" y="305" width="6" height="8" fill="#444"/>
<text x="416" y="324" font-size="7.5" fill="white" text-anchor="start" font-weight="normal" transform="rotate(90 416 324)">12</text>
<rect x="395" y="305" width="6" height="8" fill="#444"/>
<text x="398" y="324" font-size="7.5" fill="white" text-anchor="start" font-weight="normal" transform="rotate(90 398 324)">13</text>
<rect x="377" y="305" width="6" height="8" fill="#444"/>
<text x="380" y="324" font-size="7.5" fill="white" text-anchor="start" font-weight="normal" transform="rotate(90 380 324)">GND</text>
<rect x="359" y="305" width="6" height="8" fill="#444"/>
<text x="362" y="324" font-size="7.5" fill="white" text-anchor="start" font-weight="normal" transform="rotate(90 362 324)">AREF</text>
<text x="501.0" y="362" font-size="8" fill="#CDEDF0" text-anchor="middle" font-weight="normal">DIGITAL (PWM ~)</text>
<rect x="362" y="542" width="244" height="18" fill="#111"/>
<rect x="367" y="547" width="6" height="8" fill="#444"/>
<text x="370" y="536" font-size="7.5" fill="white" text-anchor="middle" font-weight="normal" transform="rotate(-90 370 536)">IOREF</text>
<rect x="385" y="547" width="6" height="8" fill="#444"/>
<text x="388" y="536" font-size="7.5" fill="white" text-anchor="middle" font-weight="normal" transform="rotate(-90 388 536)">RESET</text>
<rect x="403" y="547" width="6" height="8" fill="#444"/>
<text x="406" y="536" font-size="7.5" fill="white" text-anchor="middle" font-weight="normal" transform="rotate(-90 406 536)">3V3</text>
<rect x="421" y="547" width="6" height="8" fill="#444"/>
<text x="424" y="536" font-size="7.5" fill="white" text-anchor="middle" font-weight="normal" transform="rotate(-90 424 536)">5V</text>
<rect x="439" y="547" width="6" height="8" fill="#444"/>
<text x="442" y="536" font-size="7.5" fill="white" text-anchor="middle" font-weight="normal" transform="rotate(-90 442 536)">GND</text>
<rect x="457" y="547" width="6" height="8" fill="#444"/>
<text x="460" y="536" font-size="7.5" fill="white" text-anchor="middle" font-weight="normal" transform="rotate(-90 460 536)">GND</text>
<rect x="475" y="547" width="6" height="8" fill="#444"/>
<text x="478" y="536" font-size="7.5" fill="white" text-anchor="middle" font-weight="normal" transform="rotate(-90 478 536)">VIN</text>
<rect x="505" y="547" width="6" height="8" fill="#444"/>
<text x="508" y="536" font-size="7.5" fill="white" text-anchor="middle" font-weight="normal" transform="rotate(-90 508 536)">A0</text>
<rect x="523" y="547" width="6" height="8" fill="#444"/>
<text x="526" y="536" font-size="7.5" fill="white" text-anchor="middle" font-weight="normal" transform="rotate(-90 526 536)">A1</text>
<rect x="541" y="547" width="6" height="8" fill="#444"/>
<text x="544" y="536" font-size="7.5" fill="white" text-anchor="middle" font-weight="normal" transform="rotate(-90 544 536)">A2</text>
<rect x="559" y="547" width="6" height="8" fill="#444"/>
<text x="562" y="536" font-size="7.5" fill="white" text-anchor="middle" font-weight="normal" transform="rotate(-90 562 536)">A3</text>
<rect x="577" y="547" width="6" height="8" fill="#444"/>
<text x="580" y="536" font-size="7.5" fill="white" text-anchor="middle" font-weight="normal" transform="rotate(-90 580 536)">A4</text>
<rect x="595" y="547" width="6" height="8" fill="#444"/>
<text x="598" y="536" font-size="7.5" fill="white" text-anchor="middle" font-weight="normal" transform="rotate(-90 598 536)">A5</text>
<text x="424.0" y="498" font-size="8" fill="#CDEDF0" text-anchor="middle" font-weight="normal">POWER</text>
<text x="553.0" y="498" font-size="8" fill="#CDEDF0" text-anchor="middle" font-weight="normal">ANALOG IN</text>
<rect x="980" y="142" width="200" height="16" rx="3" fill="#374151"/>
<rect x="1010" y="110" width="140" height="120" rx="8" fill="#1F2937" stroke="#111" stroke-width="2"/>
<circle cx="1050" cy="162" r="6" fill="#111"/><circle cx="1110" cy="162" r="6" fill="#111"/>
<circle cx="1055" cy="102" r="34" fill="#E5E7EB" stroke="#6B7280" stroke-width="2"/>
<rect x="1052" y="68" width="6" height="9" fill="#6B7280" transform="rotate(0 1055 102)"/>
<rect x="1052" y="68" width="6" height="9" fill="#6B7280" transform="rotate(30 1055 102)"/>
<rect x="1052" y="68" width="6" height="9" fill="#6B7280" transform="rotate(60 1055 102)"/>
<rect x="1052" y="68" width="6" height="9" fill="#6B7280" transform="rotate(90 1055 102)"/>
<rect x="1052" y="68" width="6" height="9" fill="#6B7280" transform="rotate(120 1055 102)"/>
<rect x="1052" y="68" width="6" height="9" fill="#6B7280" transform="rotate(150 1055 102)"/>
<rect x="1052" y="68" width="6" height="9" fill="#6B7280" transform="rotate(180 1055 102)"/>
<rect x="1052" y="68" width="6" height="9" fill="#6B7280" transform="rotate(210 1055 102)"/>
<rect x="1052" y="68" width="6" height="9" fill="#6B7280" transform="rotate(240 1055 102)"/>
<rect x="1052" y="68" width="6" height="9" fill="#6B7280" transform="rotate(270 1055 102)"/>
<rect x="1052" y="68" width="6" height="9" fill="#6B7280" transform="rotate(300 1055 102)"/>
<rect x="1052" y="68" width="6" height="9" fill="#6B7280" transform="rotate(330 1055 102)"/>
<circle cx="1055" cy="102" r="7" fill="#6B7280"/>
<text x="1080" y="200" font-size="12" fill="white" text-anchor="middle" font-weight="bold">SPT5435LV</text>
<text x="1080" y="215" font-size="10" fill="#D1D5DB" text-anchor="middle" font-weight="normal">servo</text>
<text x="1080" y="54" font-size="13" fill="#1B3A5C" text-anchor="middle" font-weight="bold">Servo + tensioning hub</text>
<rect x="996" y="176" width="14" height="8" fill="#374151"/>
<rect x="996" y="190" width="14" height="8" fill="#374151"/>
<rect x="996" y="204" width="14" height="8" fill="#374151"/>
<rect x="60" y="300" width="170" height="110" rx="8" fill="#1E3A8A" stroke="#1E2A5A" stroke-width="2"/>
<rect x="68" y="308" width="154" height="94" rx="6" fill="none" stroke="#3B82F6" stroke-width="1.5"/>
<text x="145" y="345" font-size="16" fill="white" text-anchor="middle" font-weight="bold">LiPo 2S</text>
<text x="145" y="366" font-size="11" fill="#BFDBFE" text-anchor="middle" font-weight="normal">1500 mAh · 7.4 V</text>
<text x="145" y="382" font-size="10" fill="#BFDBFE" text-anchor="middle" font-weight="normal">8.4 V full</text>
<rect x="230" y="322" width="12" height="16" fill="#FACC15"/>
<rect x="230" y="372" width="12" height="16" fill="#FACC15"/>
<text x="145" y="435" font-size="14" fill="#1B3A5C" text-anchor="middle" font-weight="bold">Battery</text>
<rect x="80" y="640" width="190" height="80" rx="18" fill="#D1D5DB" stroke="#9CA3AF" stroke-width="2"/>
<circle cx="125" cy="680" r="16" fill="#E5E7EB" stroke="#6B7280" stroke-width="2"/>
<circle cx="125" cy="680" r="9" fill="#F9FAFB"/>
<circle cx="175" cy="680" r="16" fill="#E5E7EB" stroke="#6B7280" stroke-width="2"/>
<circle cx="175" cy="680" r="9" fill="#F9FAFB"/>
<circle cx="225" cy="680" r="16" fill="#E5E7EB" stroke="#6B7280" stroke-width="2"/>
<circle cx="225" cy="680" r="9" fill="#F9FAFB"/>
<text x="175" y="748" font-size="14" fill="#1B3A5C" text-anchor="middle" font-weight="bold">EMG electrode (dry contacts)</text>
<text x="175" y="764" font-size="11" fill="#6B7280" text-anchor="middle" font-weight="normal">hardware envelope, 0–5 V out</text>
<rect x="270" y="659" width="12" height="6" fill="#6B7280"/>
<rect x="270" y="677" width="12" height="6" fill="#6B7280"/>
<rect x="270" y="695" width="12" height="6" fill="#6B7280"/>
<rect x="800" y="320" width="44" height="44" rx="4" fill="#111"/>
<circle cx="822" cy="342" r="12" fill="#B0322A"/>
<rect x="792" y="326" width="4" height="4" fill="#9CA3AF"/>
<rect x="792" y="354" width="4" height="4" fill="#9CA3AF"/>
<rect x="848" y="326" width="4" height="4" fill="#9CA3AF"/>
<rect x="848" y="354" width="4" height="4" fill="#9CA3AF"/>
<text x="822" y="384" font-size="11" fill="#1B3A5C" text-anchor="middle" font-weight="bold">Calibration button</text>
<rect x="792" y="430" width="60" height="30" rx="4" fill="#374151"/>
<rect x="814" y="414" width="8" height="24" rx="3" fill="#9CA3AF" transform="rotate(-25 818 440)"/>
<circle cx="822" cy="445" r="9" fill="#111"/>
<text x="822" y="482" font-size="11" fill="#1B3A5C" text-anchor="middle" font-weight="bold">Mode switch</text>
<rect x="784" y="443" width="6" height="4" fill="#9CA3AF"/>
<rect x="856" y="443" width="6" height="4" fill="#9CA3AF"/>
<line x1="912" y1="618" x2="912" y2="644" stroke="#9CA3AF" stroke-width="3"/>
<line x1="928" y1="618" x2="928" y2="638" stroke="#9CA3AF" stroke-width="3"/>
<path d="M904,618 L904,600 A16,16 0 0 1 936,600 L936,618 Z" fill="#3B82F6" stroke="#111" stroke-width="1.5" opacity="0.95"/>
<rect x="901" y="616" width="38" height="5" fill="#3B82F6" stroke="#111" stroke-width="1"/>
<text x="920" y="588" font-size="11" fill="#1B3A5C" text-anchor="middle" font-weight="bold">LED latch</text>
<line x1="1022" y1="618" x2="1022" y2="644" stroke="#9CA3AF" stroke-width="3"/>
<line x1="1038" y1="618" x2="1038" y2="638" stroke="#9CA3AF" stroke-width="3"/>
<path d="M1014,618 L1014,600 A16,16 0 0 1 1046,600 L1046,618 Z" fill="#22C55E" stroke="#111" stroke-width="1.5" opacity="0.95"/>
<rect x="1011" y="616" width="38" height="5" fill="#22C55E" stroke="#111" stroke-width="1"/>
<text x="1030" y="588" font-size="11" fill="#1B3A5C" text-anchor="middle" font-weight="bold">LED normal</text>
<rect x="820" y="637" width="46" height="14" rx="6" fill="#E8D8B0" stroke="#8B7A55"/>
<rect x="828" y="637" width="4" height="14" fill="#B0322A"/>
<rect x="836" y="637" width="4" height="14" fill="#B0322A"/>
<rect x="844" y="637" width="4" height="14" fill="#7A4B12"/>
<rect x="852" y="637" width="4" height="14" fill="#C9A227"/>
<text x="843" y="664" font-size="9" fill="#6B7280" text-anchor="middle" font-weight="normal">220 Ω</text>
<rect x="930" y="693" width="46" height="14" rx="6" fill="#E8D8B0" stroke="#8B7A55"/>
<rect x="938" y="693" width="4" height="14" fill="#B0322A"/>
<rect x="946" y="693" width="4" height="14" fill="#B0322A"/>
<rect x="954" y="693" width="4" height="14" fill="#7A4B12"/>
<rect x="962" y="693" width="4" height="14" fill="#C9A227"/>
<text x="953" y="720" font-size="9" fill="#6B7280" text-anchor="middle" font-weight="normal">220 Ω</text>
<line x1="1130" y1="356" x2="1130" y2="720" stroke="#111827" stroke-width="4" stroke-linecap="round"/>
<text x="1140" y="500" font-size="10" fill="#111827" text-anchor="start" font-weight="bold">GND</text>
<path d="M230,330 C310,60 710,50 1010,194" fill="none" stroke="#DC2626" stroke-width="4" stroke-linecap="round"/>
<circle cx="230" cy="330" r="4" fill="#DC2626"/>
<path d="M230,330 C270,470 478,680 478,564" fill="none" stroke="#DC2626" stroke-width="4" stroke-linecap="round"/>
<path d="M230,380 C270,520 442,670 442,564" fill="none" stroke="#111827" stroke-width="4" stroke-linecap="round"/>
<circle cx="230" cy="380" r="4" fill="#111827"/>
<path d="M1010,180 C850,240 380,190 380,296" fill="none" stroke="#111827" stroke-width="4" stroke-linecap="round"/>
<path d="M1010,208 C830,298 470,220 470,296" fill="none" stroke="#F97316" stroke-width="4" stroke-linecap="round"/>
<path d="M270,662 C330,622 424,630 424,564" fill="none" stroke="#DC2626" stroke-width="4" stroke-linecap="round"/>
<path d="M270,680 C350,660 460,650 460,564" fill="none" stroke="#111827" stroke-width="4" stroke-linecap="round"/>
<path d="M270,698 C390,708 508,660 508,564" fill="none" stroke="#EAB308" stroke-width="4" stroke-linecap="round"/>
<path d="M1130,356 C1130,150 380,150 380,296" fill="none" stroke="#111827" stroke-width="4" stroke-linecap="round"/>
<path d="M604,296 C604,250 752,298 792,328" fill="none" stroke="#16A34A" stroke-width="4" stroke-linecap="round"/>
<path d="M852,356 C912,356 1070,356 1130,356" fill="none" stroke="#111827" stroke-width="4" stroke-linecap="round"/>
<path d="M586,296 C586,260 726,405 786,445" fill="none" stroke="#DB2777" stroke-width="4" stroke-linecap="round"/>
<path d="M858,445 C918,445 1070,445 1130,445" fill="none" stroke="#111827" stroke-width="4" stroke-linecap="round"/>
<path d="M568,296 C568,280 670,710 930,700" fill="none" stroke="#16A34A" stroke-width="4" stroke-linecap="round"/>
<path d="M976,700 C996,700 1022,674 1022,644" fill="none" stroke="#16A34A" stroke-width="4" stroke-linecap="round"/>
<path d="M1038,638 C1068,668 1090,668 1130,668" fill="none" stroke="#111827" stroke-width="4" stroke-linecap="round"/>
<path d="M550,296 C550,270 730,534 820,644" fill="none" stroke="#DB2777" stroke-width="4" stroke-linecap="round"/>
<path d="M866,644 C886,644 912,674 912,644" fill="none" stroke="#DB2777" stroke-width="4" stroke-linecap="round"/>
<path d="M928,638 C958,698 1070,698 1130,698" fill="none" stroke="#111827" stroke-width="4" stroke-linecap="round"/>
<text x="40" y="40" font-size="24" fill="#1B3A5C" text-anchor="start" font-weight="bold">UNIMAN — wiring</text>
<text x="40" y="62" font-size="13" fill="#6B7280" text-anchor="start" font-weight="normal">EMG-controlled robotic hand</text>
<line x1="40" y1="810" x2="70" y2="810" stroke="#DC2626" stroke-width="4" stroke-linecap="round"/>
<text x="78" y="814" font-size="11" fill="#374151" text-anchor="start" font-weight="normal">power +</text>
<line x1="230" y1="810" x2="260" y2="810" stroke="#111827" stroke-width="4" stroke-linecap="round"/>
<text x="268" y="814" font-size="11" fill="#374151" text-anchor="start" font-weight="normal">ground</text>
<line x1="420" y1="810" x2="450" y2="810" stroke="#F97316" stroke-width="4" stroke-linecap="round"/>
<text x="458" y="814" font-size="11" fill="#374151" text-anchor="start" font-weight="normal">servo signal · D9</text>
<line x1="610" y1="810" x2="640" y2="810" stroke="#EAB308" stroke-width="4" stroke-linecap="round"/>
<text x="648" y="814" font-size="11" fill="#374151" text-anchor="start" font-weight="normal">EMG signal · A0</text>
<line x1="800" y1="810" x2="830" y2="810" stroke="#16A34A" stroke-width="4" stroke-linecap="round"/>
<text x="838" y="814" font-size="11" fill="#374151" text-anchor="start" font-weight="normal">D2 button / D4 LED</text>
<line x1="990" y1="810" x2="1020" y2="810" stroke="#DB2777" stroke-width="4" stroke-linecap="round"/>
<text x="1028" y="814" font-size="11" fill="#374151" text-anchor="start" font-weight="normal">D3 switch / D5 LED</text>
</svg>